<mxfile host="app.diagrams.net" modified="2021-12-20T06:28:43.710Z" agent="5.0 (Windows NT 10.0; Win64; x64) AppleWebKit/537.36 (KHTML, like Gecko) Chrome/94.0.4606.61 Safari/537.36" etag="LXoM-NLncg3oj9QV3Tb9" version="15.9.6" type="github">
  <diagram id="dUXvg23hqmTEOPNSO0V3" name="Page-1">
    <mxGraphModel dx="1673" dy="2105" grid="1" gridSize="10" guides="1" tooltips="1" connect="1" arrows="1" fold="1" page="1" pageScale="1" pageWidth="827" pageHeight="1169" math="0" shadow="0">
      <root>
        <mxCell id="0" />
        <mxCell id="1" parent="0" />
        <mxCell id="RMoLjJV2bHC7u4-7koIW-206" value="" style="rounded=0;whiteSpace=wrap;html=1;sketch=1;" vertex="1" parent="1">
          <mxGeometry x="40" y="-160" width="840" height="1520" as="geometry" />
        </mxCell>
        <mxCell id="RMoLjJV2bHC7u4-7koIW-1" value="" style="swimlane;shadow=1;sketch=0;fillStyle=zigzag-line;fillColor=default;gradientColor=none;gradientDirection=west;startSize=40;rounded=1;swimlaneFillColor=default;" vertex="1" parent="1">
          <mxGeometry x="120" y="80" width="600" height="250" as="geometry" />
        </mxCell>
        <mxCell id="RMoLjJV2bHC7u4-7koIW-2" value="" style="ellipse;whiteSpace=wrap;html=1;shadow=0;sketch=1;fillStyle=auto;fillColor=#d5e8d4;gradientDirection=west;strokeColor=#82b366;" vertex="1" parent="RMoLjJV2bHC7u4-7koIW-1">
          <mxGeometry x="180" y="6" width="30" height="30" as="geometry" />
        </mxCell>
        <mxCell id="RMoLjJV2bHC7u4-7koIW-3" value="" style="ellipse;whiteSpace=wrap;html=1;shadow=0;sketch=1;fillStyle=auto;fillColor=#f8cecc;gradientDirection=west;strokeColor=#b85450;" vertex="1" parent="RMoLjJV2bHC7u4-7koIW-1">
          <mxGeometry x="270" y="6" width="30" height="30" as="geometry" />
        </mxCell>
        <mxCell id="RMoLjJV2bHC7u4-7koIW-4" value="" style="ellipse;whiteSpace=wrap;html=1;shadow=0;sketch=1;fillStyle=auto;gradientDirection=west;" vertex="1" parent="RMoLjJV2bHC7u4-7koIW-1">
          <mxGeometry x="363.5" y="6" width="30" height="30" as="geometry" />
        </mxCell>
        <mxCell id="RMoLjJV2bHC7u4-7koIW-5" value="回收前" style="text;html=1;align=center;verticalAlign=middle;resizable=0;points=[];autosize=1;strokeColor=none;fillColor=none;fontFamily=Comic Sans MS;" vertex="1" parent="RMoLjJV2bHC7u4-7koIW-1">
          <mxGeometry x="20" y="11" width="50" height="20" as="geometry" />
        </mxCell>
        <mxCell id="RMoLjJV2bHC7u4-7koIW-7" value="存活对象" style="text;html=1;align=center;verticalAlign=middle;resizable=0;points=[];autosize=1;strokeColor=none;fillColor=none;fontFamily=Comic Sans MS;" vertex="1" parent="RMoLjJV2bHC7u4-7koIW-1">
          <mxGeometry x="210" y="11" width="60" height="20" as="geometry" />
        </mxCell>
        <mxCell id="RMoLjJV2bHC7u4-7koIW-8" value="垃圾对象" style="text;html=1;align=center;verticalAlign=middle;resizable=0;points=[];autosize=1;strokeColor=none;fillColor=none;fontFamily=Comic Sans MS;" vertex="1" parent="RMoLjJV2bHC7u4-7koIW-1">
          <mxGeometry x="300" y="11" width="60" height="20" as="geometry" />
        </mxCell>
        <mxCell id="RMoLjJV2bHC7u4-7koIW-9" value="未使用空间" style="text;html=1;align=center;verticalAlign=middle;resizable=0;points=[];autosize=1;strokeColor=none;fillColor=none;fontFamily=Comic Sans MS;" vertex="1" parent="RMoLjJV2bHC7u4-7koIW-1">
          <mxGeometry x="390.5" y="11" width="80" height="20" as="geometry" />
        </mxCell>
        <mxCell id="RMoLjJV2bHC7u4-7koIW-55" value="" style="rounded=1;whiteSpace=wrap;html=1;sketch=1;arcSize=5;fillColor=#f5f5f5;strokeColor=#666666;fontColor=#333333;" vertex="1" parent="RMoLjJV2bHC7u4-7koIW-1">
          <mxGeometry y="41" width="600" height="210" as="geometry" />
        </mxCell>
        <mxCell id="RMoLjJV2bHC7u4-7koIW-57" value="" style="ellipse;whiteSpace=wrap;html=1;shadow=0;sketch=1;fillStyle=auto;gradientDirection=west;" vertex="1" parent="RMoLjJV2bHC7u4-7koIW-1">
          <mxGeometry x="5" y="41" width="80" height="40" as="geometry" />
        </mxCell>
        <mxCell id="RMoLjJV2bHC7u4-7koIW-58" value="" style="ellipse;whiteSpace=wrap;html=1;shadow=0;sketch=1;fillStyle=auto;gradientDirection=west;" vertex="1" parent="RMoLjJV2bHC7u4-7koIW-1">
          <mxGeometry x="90" y="41" width="80" height="40" as="geometry" />
        </mxCell>
        <mxCell id="RMoLjJV2bHC7u4-7koIW-59" value="" style="ellipse;whiteSpace=wrap;html=1;shadow=0;sketch=1;fillStyle=auto;gradientDirection=west;" vertex="1" parent="RMoLjJV2bHC7u4-7koIW-1">
          <mxGeometry x="175" y="41" width="80" height="40" as="geometry" />
        </mxCell>
        <mxCell id="RMoLjJV2bHC7u4-7koIW-60" value="" style="ellipse;whiteSpace=wrap;html=1;shadow=0;sketch=1;fillStyle=auto;gradientDirection=west;" vertex="1" parent="RMoLjJV2bHC7u4-7koIW-1">
          <mxGeometry x="260" y="41" width="80" height="40" as="geometry" />
        </mxCell>
        <mxCell id="RMoLjJV2bHC7u4-7koIW-61" value="" style="ellipse;whiteSpace=wrap;html=1;shadow=0;sketch=1;fillStyle=auto;gradientDirection=west;" vertex="1" parent="RMoLjJV2bHC7u4-7koIW-1">
          <mxGeometry x="346" y="41" width="80" height="40" as="geometry" />
        </mxCell>
        <mxCell id="RMoLjJV2bHC7u4-7koIW-62" value="" style="ellipse;whiteSpace=wrap;html=1;shadow=0;sketch=1;fillStyle=auto;gradientDirection=west;fillColor=#d5e8d4;strokeColor=#82b366;" vertex="1" parent="RMoLjJV2bHC7u4-7koIW-1">
          <mxGeometry x="434" y="41" width="80" height="40" as="geometry" />
        </mxCell>
        <mxCell id="RMoLjJV2bHC7u4-7koIW-63" value="" style="ellipse;whiteSpace=wrap;html=1;shadow=0;sketch=1;fillStyle=auto;gradientDirection=west;fillColor=#d5e8d4;strokeColor=#82b366;" vertex="1" parent="RMoLjJV2bHC7u4-7koIW-1">
          <mxGeometry x="520" y="41" width="80" height="40" as="geometry" />
        </mxCell>
        <mxCell id="RMoLjJV2bHC7u4-7koIW-64" value="" style="ellipse;whiteSpace=wrap;html=1;shadow=0;sketch=1;fillStyle=auto;gradientDirection=west;" vertex="1" parent="RMoLjJV2bHC7u4-7koIW-1">
          <mxGeometry x="2.5" y="81" width="80" height="40" as="geometry" />
        </mxCell>
        <mxCell id="RMoLjJV2bHC7u4-7koIW-65" value="" style="ellipse;whiteSpace=wrap;html=1;shadow=0;sketch=1;fillStyle=auto;gradientDirection=west;" vertex="1" parent="RMoLjJV2bHC7u4-7koIW-1">
          <mxGeometry x="87.5" y="81" width="80" height="40" as="geometry" />
        </mxCell>
        <mxCell id="RMoLjJV2bHC7u4-7koIW-66" value="" style="ellipse;whiteSpace=wrap;html=1;shadow=0;sketch=1;fillStyle=auto;gradientDirection=west;" vertex="1" parent="RMoLjJV2bHC7u4-7koIW-1">
          <mxGeometry x="172.5" y="81" width="80" height="40" as="geometry" />
        </mxCell>
        <mxCell id="RMoLjJV2bHC7u4-7koIW-67" value="" style="ellipse;whiteSpace=wrap;html=1;shadow=0;sketch=1;fillStyle=auto;gradientDirection=west;" vertex="1" parent="RMoLjJV2bHC7u4-7koIW-1">
          <mxGeometry x="257.5" y="81" width="80" height="40" as="geometry" />
        </mxCell>
        <mxCell id="RMoLjJV2bHC7u4-7koIW-68" value="" style="ellipse;whiteSpace=wrap;html=1;shadow=0;sketch=1;fillStyle=auto;gradientDirection=west;" vertex="1" parent="RMoLjJV2bHC7u4-7koIW-1">
          <mxGeometry x="343.5" y="81" width="80" height="40" as="geometry" />
        </mxCell>
        <mxCell id="RMoLjJV2bHC7u4-7koIW-69" value="" style="ellipse;whiteSpace=wrap;html=1;shadow=0;sketch=1;fillStyle=auto;gradientDirection=west;fillColor=#d5e8d4;strokeColor=#82b366;" vertex="1" parent="RMoLjJV2bHC7u4-7koIW-1">
          <mxGeometry x="431.5" y="81" width="80" height="40" as="geometry" />
        </mxCell>
        <mxCell id="RMoLjJV2bHC7u4-7koIW-70" value="" style="ellipse;whiteSpace=wrap;html=1;shadow=0;sketch=1;fillStyle=auto;gradientDirection=west;" vertex="1" parent="RMoLjJV2bHC7u4-7koIW-1">
          <mxGeometry x="517.5" y="81" width="80" height="40" as="geometry" />
        </mxCell>
        <mxCell id="RMoLjJV2bHC7u4-7koIW-71" value="" style="ellipse;whiteSpace=wrap;html=1;shadow=0;sketch=1;fillStyle=auto;gradientDirection=west;fillColor=#f8cecc;strokeColor=#b85450;" vertex="1" parent="RMoLjJV2bHC7u4-7koIW-1">
          <mxGeometry x="2.5" y="123" width="80" height="40" as="geometry" />
        </mxCell>
        <mxCell id="RMoLjJV2bHC7u4-7koIW-72" value="" style="ellipse;whiteSpace=wrap;html=1;shadow=0;sketch=1;fillStyle=auto;gradientDirection=west;" vertex="1" parent="RMoLjJV2bHC7u4-7koIW-1">
          <mxGeometry x="87.5" y="123" width="80" height="40" as="geometry" />
        </mxCell>
        <mxCell id="RMoLjJV2bHC7u4-7koIW-73" value="" style="ellipse;whiteSpace=wrap;html=1;shadow=0;sketch=1;fillStyle=auto;gradientDirection=west;" vertex="1" parent="RMoLjJV2bHC7u4-7koIW-1">
          <mxGeometry x="172.5" y="123" width="80" height="40" as="geometry" />
        </mxCell>
        <mxCell id="RMoLjJV2bHC7u4-7koIW-74" value="" style="ellipse;whiteSpace=wrap;html=1;shadow=0;sketch=1;fillStyle=auto;gradientDirection=west;fillColor=#f8cecc;strokeColor=#b85450;" vertex="1" parent="RMoLjJV2bHC7u4-7koIW-1">
          <mxGeometry x="257.5" y="123" width="80" height="40" as="geometry" />
        </mxCell>
        <mxCell id="RMoLjJV2bHC7u4-7koIW-75" value="" style="ellipse;whiteSpace=wrap;html=1;shadow=0;sketch=1;fillStyle=auto;gradientDirection=west;fillColor=#f8cecc;strokeColor=#b85450;" vertex="1" parent="RMoLjJV2bHC7u4-7koIW-1">
          <mxGeometry x="343.5" y="123" width="80" height="40" as="geometry" />
        </mxCell>
        <mxCell id="RMoLjJV2bHC7u4-7koIW-76" value="" style="ellipse;whiteSpace=wrap;html=1;shadow=0;sketch=1;fillStyle=auto;gradientDirection=west;" vertex="1" parent="RMoLjJV2bHC7u4-7koIW-1">
          <mxGeometry x="431.5" y="123" width="80" height="40" as="geometry" />
        </mxCell>
        <mxCell id="RMoLjJV2bHC7u4-7koIW-77" value="" style="ellipse;whiteSpace=wrap;html=1;shadow=0;sketch=1;fillStyle=auto;gradientDirection=west;fillColor=#d5e8d4;strokeColor=#82b366;" vertex="1" parent="RMoLjJV2bHC7u4-7koIW-1">
          <mxGeometry x="517.5" y="123" width="80" height="40" as="geometry" />
        </mxCell>
        <mxCell id="RMoLjJV2bHC7u4-7koIW-78" value="" style="ellipse;whiteSpace=wrap;html=1;shadow=0;sketch=1;fillStyle=auto;gradientDirection=west;fillColor=#f8cecc;strokeColor=#b85450;" vertex="1" parent="RMoLjJV2bHC7u4-7koIW-1">
          <mxGeometry x="2.5" y="163" width="80" height="40" as="geometry" />
        </mxCell>
        <mxCell id="RMoLjJV2bHC7u4-7koIW-79" value="" style="ellipse;whiteSpace=wrap;html=1;shadow=0;sketch=1;fillStyle=auto;gradientDirection=west;" vertex="1" parent="RMoLjJV2bHC7u4-7koIW-1">
          <mxGeometry x="87.5" y="163" width="80" height="40" as="geometry" />
        </mxCell>
        <mxCell id="RMoLjJV2bHC7u4-7koIW-80" value="" style="ellipse;whiteSpace=wrap;html=1;shadow=0;sketch=1;fillStyle=auto;gradientDirection=west;fillColor=#f8cecc;strokeColor=#b85450;" vertex="1" parent="RMoLjJV2bHC7u4-7koIW-1">
          <mxGeometry x="172.5" y="163" width="80" height="40" as="geometry" />
        </mxCell>
        <mxCell id="RMoLjJV2bHC7u4-7koIW-81" value="" style="ellipse;whiteSpace=wrap;html=1;shadow=0;sketch=1;fillStyle=auto;gradientDirection=west;" vertex="1" parent="RMoLjJV2bHC7u4-7koIW-1">
          <mxGeometry x="257.5" y="163" width="80" height="40" as="geometry" />
        </mxCell>
        <mxCell id="RMoLjJV2bHC7u4-7koIW-82" value="" style="ellipse;whiteSpace=wrap;html=1;shadow=0;sketch=1;fillStyle=auto;gradientDirection=west;" vertex="1" parent="RMoLjJV2bHC7u4-7koIW-1">
          <mxGeometry x="343.5" y="163" width="80" height="40" as="geometry" />
        </mxCell>
        <mxCell id="RMoLjJV2bHC7u4-7koIW-83" value="" style="ellipse;whiteSpace=wrap;html=1;shadow=0;sketch=1;fillStyle=auto;gradientDirection=west;" vertex="1" parent="RMoLjJV2bHC7u4-7koIW-1">
          <mxGeometry x="431.5" y="163" width="80" height="40" as="geometry" />
        </mxCell>
        <mxCell id="RMoLjJV2bHC7u4-7koIW-84" value="" style="ellipse;whiteSpace=wrap;html=1;shadow=0;sketch=1;fillStyle=auto;gradientDirection=west;fillColor=#d5e8d4;strokeColor=#82b366;" vertex="1" parent="RMoLjJV2bHC7u4-7koIW-1">
          <mxGeometry x="517.5" y="163" width="80" height="40" as="geometry" />
        </mxCell>
        <mxCell id="RMoLjJV2bHC7u4-7koIW-85" value="" style="ellipse;whiteSpace=wrap;html=1;shadow=0;sketch=1;fillStyle=auto;gradientDirection=west;" vertex="1" parent="RMoLjJV2bHC7u4-7koIW-1">
          <mxGeometry x="3" y="206" width="80" height="40" as="geometry" />
        </mxCell>
        <mxCell id="RMoLjJV2bHC7u4-7koIW-86" value="" style="ellipse;whiteSpace=wrap;html=1;shadow=0;sketch=1;fillStyle=auto;gradientDirection=west;fillColor=#d5e8d4;strokeColor=#82b366;" vertex="1" parent="RMoLjJV2bHC7u4-7koIW-1">
          <mxGeometry x="88" y="206" width="80" height="40" as="geometry" />
        </mxCell>
        <mxCell id="RMoLjJV2bHC7u4-7koIW-87" value="" style="ellipse;whiteSpace=wrap;html=1;shadow=0;sketch=1;fillStyle=auto;gradientDirection=west;" vertex="1" parent="RMoLjJV2bHC7u4-7koIW-1">
          <mxGeometry x="173" y="206" width="80" height="40" as="geometry" />
        </mxCell>
        <mxCell id="RMoLjJV2bHC7u4-7koIW-88" value="" style="ellipse;whiteSpace=wrap;html=1;shadow=0;sketch=1;fillStyle=auto;gradientDirection=west;fillColor=#f8cecc;strokeColor=#b85450;" vertex="1" parent="RMoLjJV2bHC7u4-7koIW-1">
          <mxGeometry x="258" y="206" width="80" height="40" as="geometry" />
        </mxCell>
        <mxCell id="RMoLjJV2bHC7u4-7koIW-89" value="" style="ellipse;whiteSpace=wrap;html=1;shadow=0;sketch=1;fillStyle=auto;gradientDirection=west;" vertex="1" parent="RMoLjJV2bHC7u4-7koIW-1">
          <mxGeometry x="344" y="206" width="80" height="40" as="geometry" />
        </mxCell>
        <mxCell id="RMoLjJV2bHC7u4-7koIW-90" value="" style="ellipse;whiteSpace=wrap;html=1;shadow=0;sketch=1;fillStyle=auto;gradientDirection=west;fillColor=#d5e8d4;strokeColor=#82b366;" vertex="1" parent="RMoLjJV2bHC7u4-7koIW-1">
          <mxGeometry x="432" y="206" width="80" height="40" as="geometry" />
        </mxCell>
        <mxCell id="RMoLjJV2bHC7u4-7koIW-91" value="" style="ellipse;whiteSpace=wrap;html=1;shadow=0;sketch=1;fillStyle=auto;gradientDirection=west;" vertex="1" parent="RMoLjJV2bHC7u4-7koIW-1">
          <mxGeometry x="518" y="206" width="80" height="40" as="geometry" />
        </mxCell>
        <mxCell id="RMoLjJV2bHC7u4-7koIW-92" value="" style="ellipse;whiteSpace=wrap;html=1;shadow=0;sketch=1;fillStyle=auto;gradientDirection=west;" vertex="1" parent="RMoLjJV2bHC7u4-7koIW-1">
          <mxGeometry x="87.5" y="81" width="80" height="40" as="geometry" />
        </mxCell>
        <mxCell id="RMoLjJV2bHC7u4-7koIW-95" value="" style="ellipse;whiteSpace=wrap;html=1;shadow=0;sketch=1;fillStyle=auto;gradientDirection=west;" vertex="1" parent="RMoLjJV2bHC7u4-7koIW-1">
          <mxGeometry x="5" y="41" width="80" height="40" as="geometry" />
        </mxCell>
        <mxCell id="RMoLjJV2bHC7u4-7koIW-96" value="" style="ellipse;whiteSpace=wrap;html=1;shadow=0;sketch=1;fillStyle=auto;gradientDirection=west;fillColor=#d5e8d4;strokeColor=#82b366;" vertex="1" parent="RMoLjJV2bHC7u4-7koIW-1">
          <mxGeometry x="5" y="41" width="80" height="40" as="geometry" />
        </mxCell>
        <mxCell id="RMoLjJV2bHC7u4-7koIW-97" value="" style="ellipse;whiteSpace=wrap;html=1;shadow=0;sketch=1;fillStyle=auto;gradientDirection=west;fillColor=#d5e8d4;strokeColor=#82b366;" vertex="1" parent="RMoLjJV2bHC7u4-7koIW-1">
          <mxGeometry x="87.5" y="81" width="80" height="40" as="geometry" />
        </mxCell>
        <mxCell id="RMoLjJV2bHC7u4-7koIW-98" value="" style="ellipse;whiteSpace=wrap;html=1;shadow=0;sketch=1;fillStyle=auto;gradientDirection=west;fillColor=#d5e8d4;strokeColor=#82b366;" vertex="1" parent="RMoLjJV2bHC7u4-7koIW-1">
          <mxGeometry x="87.5" y="123" width="80" height="40" as="geometry" />
        </mxCell>
        <mxCell id="RMoLjJV2bHC7u4-7koIW-99" value="" style="ellipse;whiteSpace=wrap;html=1;shadow=0;sketch=1;fillStyle=auto;gradientDirection=west;fillColor=#d5e8d4;strokeColor=#82b366;" vertex="1" parent="RMoLjJV2bHC7u4-7koIW-1">
          <mxGeometry x="172.5" y="81" width="80" height="40" as="geometry" />
        </mxCell>
        <mxCell id="RMoLjJV2bHC7u4-7koIW-100" value="" style="ellipse;whiteSpace=wrap;html=1;shadow=0;sketch=1;fillStyle=auto;gradientDirection=west;fillColor=#d5e8d4;strokeColor=#82b366;" vertex="1" parent="RMoLjJV2bHC7u4-7koIW-1">
          <mxGeometry x="257.5" y="81" width="80" height="40" as="geometry" />
        </mxCell>
        <mxCell id="RMoLjJV2bHC7u4-7koIW-101" value="" style="ellipse;whiteSpace=wrap;html=1;shadow=0;sketch=1;fillStyle=auto;gradientDirection=west;fillColor=#d5e8d4;strokeColor=#82b366;" vertex="1" parent="RMoLjJV2bHC7u4-7koIW-1">
          <mxGeometry x="343.5" y="163" width="80" height="40" as="geometry" />
        </mxCell>
        <mxCell id="RMoLjJV2bHC7u4-7koIW-102" value="" style="swimlane;shadow=1;sketch=0;fillStyle=zigzag-line;fillColor=default;gradientColor=none;gradientDirection=west;startSize=40;rounded=1;swimlaneFillColor=default;" vertex="1" parent="1">
          <mxGeometry x="120" y="360" width="600" height="250" as="geometry" />
        </mxCell>
        <mxCell id="RMoLjJV2bHC7u4-7koIW-103" value="" style="ellipse;whiteSpace=wrap;html=1;shadow=0;sketch=1;fillStyle=auto;fillColor=#d5e8d4;gradientDirection=west;strokeColor=#82b366;" vertex="1" parent="RMoLjJV2bHC7u4-7koIW-102">
          <mxGeometry x="180" y="6" width="30" height="30" as="geometry" />
        </mxCell>
        <mxCell id="RMoLjJV2bHC7u4-7koIW-104" value="" style="ellipse;whiteSpace=wrap;html=1;shadow=0;sketch=1;fillStyle=auto;fillColor=#f8cecc;gradientDirection=west;strokeColor=#b85450;" vertex="1" parent="RMoLjJV2bHC7u4-7koIW-102">
          <mxGeometry x="270" y="6" width="30" height="30" as="geometry" />
        </mxCell>
        <mxCell id="RMoLjJV2bHC7u4-7koIW-105" value="" style="ellipse;whiteSpace=wrap;html=1;shadow=0;sketch=1;fillStyle=auto;gradientDirection=west;" vertex="1" parent="RMoLjJV2bHC7u4-7koIW-102">
          <mxGeometry x="363.5" y="6" width="30" height="30" as="geometry" />
        </mxCell>
        <mxCell id="RMoLjJV2bHC7u4-7koIW-106" value="回收中-移动" style="text;html=1;align=center;verticalAlign=middle;resizable=0;points=[];autosize=1;strokeColor=none;fillColor=none;fontFamily=Comic Sans MS;" vertex="1" parent="RMoLjJV2bHC7u4-7koIW-102">
          <mxGeometry x="5" y="11" width="80" height="20" as="geometry" />
        </mxCell>
        <mxCell id="RMoLjJV2bHC7u4-7koIW-107" value="存活对象" style="text;html=1;align=center;verticalAlign=middle;resizable=0;points=[];autosize=1;strokeColor=none;fillColor=none;fontFamily=Comic Sans MS;" vertex="1" parent="RMoLjJV2bHC7u4-7koIW-102">
          <mxGeometry x="210" y="11" width="60" height="20" as="geometry" />
        </mxCell>
        <mxCell id="RMoLjJV2bHC7u4-7koIW-108" value="垃圾对象" style="text;html=1;align=center;verticalAlign=middle;resizable=0;points=[];autosize=1;strokeColor=none;fillColor=none;fontFamily=Comic Sans MS;" vertex="1" parent="RMoLjJV2bHC7u4-7koIW-102">
          <mxGeometry x="300" y="11" width="60" height="20" as="geometry" />
        </mxCell>
        <mxCell id="RMoLjJV2bHC7u4-7koIW-109" value="未使用空间" style="text;html=1;align=center;verticalAlign=middle;resizable=0;points=[];autosize=1;strokeColor=none;fillColor=none;fontFamily=Comic Sans MS;" vertex="1" parent="RMoLjJV2bHC7u4-7koIW-102">
          <mxGeometry x="390.5" y="11" width="80" height="20" as="geometry" />
        </mxCell>
        <mxCell id="RMoLjJV2bHC7u4-7koIW-110" value="" style="rounded=1;whiteSpace=wrap;html=1;sketch=1;arcSize=5;fillColor=#f5f5f5;strokeColor=#666666;fontColor=#333333;" vertex="1" parent="RMoLjJV2bHC7u4-7koIW-102">
          <mxGeometry y="41" width="600" height="210" as="geometry" />
        </mxCell>
        <mxCell id="RMoLjJV2bHC7u4-7koIW-111" value="" style="ellipse;whiteSpace=wrap;html=1;shadow=0;sketch=1;fillStyle=auto;gradientDirection=west;fillColor=#d5e8d4;strokeColor=#82b366;" vertex="1" parent="RMoLjJV2bHC7u4-7koIW-102">
          <mxGeometry x="5" y="41" width="80" height="40" as="geometry" />
        </mxCell>
        <mxCell id="RMoLjJV2bHC7u4-7koIW-112" value="" style="ellipse;whiteSpace=wrap;html=1;shadow=0;sketch=1;fillStyle=auto;gradientDirection=west;fillColor=#d5e8d4;strokeColor=#82b366;" vertex="1" parent="RMoLjJV2bHC7u4-7koIW-102">
          <mxGeometry x="90" y="41" width="80" height="40" as="geometry" />
        </mxCell>
        <mxCell id="RMoLjJV2bHC7u4-7koIW-113" value="" style="ellipse;whiteSpace=wrap;html=1;shadow=0;sketch=1;fillStyle=auto;gradientDirection=west;fillColor=#d5e8d4;strokeColor=#82b366;" vertex="1" parent="RMoLjJV2bHC7u4-7koIW-102">
          <mxGeometry x="175" y="41" width="80" height="40" as="geometry" />
        </mxCell>
        <mxCell id="RMoLjJV2bHC7u4-7koIW-114" value="" style="ellipse;whiteSpace=wrap;html=1;shadow=0;sketch=1;fillStyle=auto;gradientDirection=west;fillColor=#d5e8d4;strokeColor=#82b366;" vertex="1" parent="RMoLjJV2bHC7u4-7koIW-102">
          <mxGeometry x="260" y="41" width="80" height="40" as="geometry" />
        </mxCell>
        <mxCell id="RMoLjJV2bHC7u4-7koIW-115" value="" style="ellipse;whiteSpace=wrap;html=1;shadow=0;sketch=1;fillStyle=auto;gradientDirection=west;fillColor=#d5e8d4;strokeColor=#82b366;" vertex="1" parent="RMoLjJV2bHC7u4-7koIW-102">
          <mxGeometry x="346" y="41" width="80" height="40" as="geometry" />
        </mxCell>
        <mxCell id="RMoLjJV2bHC7u4-7koIW-116" value="" style="ellipse;whiteSpace=wrap;html=1;shadow=0;sketch=1;fillStyle=auto;gradientDirection=west;fillColor=#d5e8d4;strokeColor=#82b366;" vertex="1" parent="RMoLjJV2bHC7u4-7koIW-102">
          <mxGeometry x="434" y="41" width="80" height="40" as="geometry" />
        </mxCell>
        <mxCell id="RMoLjJV2bHC7u4-7koIW-117" value="" style="ellipse;whiteSpace=wrap;html=1;shadow=0;sketch=1;fillStyle=auto;gradientDirection=west;fillColor=#d5e8d4;strokeColor=#82b366;" vertex="1" parent="RMoLjJV2bHC7u4-7koIW-102">
          <mxGeometry x="520" y="41" width="80" height="40" as="geometry" />
        </mxCell>
        <mxCell id="RMoLjJV2bHC7u4-7koIW-118" value="" style="ellipse;whiteSpace=wrap;html=1;shadow=0;sketch=1;fillStyle=auto;gradientDirection=west;fillColor=#d5e8d4;strokeColor=#82b366;" vertex="1" parent="RMoLjJV2bHC7u4-7koIW-102">
          <mxGeometry x="2.5" y="81" width="80" height="40" as="geometry" />
        </mxCell>
        <mxCell id="RMoLjJV2bHC7u4-7koIW-119" value="" style="ellipse;whiteSpace=wrap;html=1;shadow=0;sketch=1;fillStyle=auto;gradientDirection=west;fillColor=#d5e8d4;strokeColor=#82b366;" vertex="1" parent="RMoLjJV2bHC7u4-7koIW-102">
          <mxGeometry x="87.5" y="81" width="80" height="40" as="geometry" />
        </mxCell>
        <mxCell id="RMoLjJV2bHC7u4-7koIW-120" value="" style="ellipse;whiteSpace=wrap;html=1;shadow=0;sketch=1;fillStyle=auto;gradientDirection=west;fillColor=#d5e8d4;strokeColor=#82b366;" vertex="1" parent="RMoLjJV2bHC7u4-7koIW-102">
          <mxGeometry x="172.5" y="81" width="80" height="40" as="geometry" />
        </mxCell>
        <mxCell id="RMoLjJV2bHC7u4-7koIW-121" value="" style="ellipse;whiteSpace=wrap;html=1;shadow=0;sketch=1;fillStyle=auto;gradientDirection=west;fillColor=#d5e8d4;strokeColor=#82b366;" vertex="1" parent="RMoLjJV2bHC7u4-7koIW-102">
          <mxGeometry x="257.5" y="81" width="80" height="40" as="geometry" />
        </mxCell>
        <mxCell id="RMoLjJV2bHC7u4-7koIW-122" value="" style="ellipse;whiteSpace=wrap;html=1;shadow=0;sketch=1;fillStyle=auto;gradientDirection=west;fillColor=#d5e8d4;strokeColor=#82b366;" vertex="1" parent="RMoLjJV2bHC7u4-7koIW-102">
          <mxGeometry x="343.5" y="81" width="80" height="40" as="geometry" />
        </mxCell>
        <mxCell id="RMoLjJV2bHC7u4-7koIW-123" value="" style="ellipse;whiteSpace=wrap;html=1;shadow=0;sketch=1;fillStyle=auto;gradientDirection=west;fillColor=#d5e8d4;strokeColor=#82b366;" vertex="1" parent="RMoLjJV2bHC7u4-7koIW-102">
          <mxGeometry x="431.5" y="81" width="80" height="40" as="geometry" />
        </mxCell>
        <mxCell id="RMoLjJV2bHC7u4-7koIW-124" value="" style="ellipse;whiteSpace=wrap;html=1;shadow=0;sketch=1;fillStyle=auto;gradientDirection=west;" vertex="1" parent="RMoLjJV2bHC7u4-7koIW-102">
          <mxGeometry x="517.5" y="81" width="80" height="40" as="geometry" />
        </mxCell>
        <mxCell id="RMoLjJV2bHC7u4-7koIW-125" value="" style="ellipse;whiteSpace=wrap;html=1;shadow=0;sketch=1;fillStyle=auto;gradientDirection=west;" vertex="1" parent="RMoLjJV2bHC7u4-7koIW-102">
          <mxGeometry x="2.5" y="123" width="80" height="40" as="geometry" />
        </mxCell>
        <mxCell id="RMoLjJV2bHC7u4-7koIW-126" value="" style="ellipse;whiteSpace=wrap;html=1;shadow=0;sketch=1;fillStyle=auto;gradientDirection=west;" vertex="1" parent="RMoLjJV2bHC7u4-7koIW-102">
          <mxGeometry x="87.5" y="123" width="80" height="40" as="geometry" />
        </mxCell>
        <mxCell id="RMoLjJV2bHC7u4-7koIW-127" value="" style="ellipse;whiteSpace=wrap;html=1;shadow=0;sketch=1;fillStyle=auto;gradientDirection=west;" vertex="1" parent="RMoLjJV2bHC7u4-7koIW-102">
          <mxGeometry x="172.5" y="123" width="80" height="40" as="geometry" />
        </mxCell>
        <mxCell id="RMoLjJV2bHC7u4-7koIW-128" value="" style="ellipse;whiteSpace=wrap;html=1;shadow=0;sketch=1;fillStyle=auto;gradientDirection=west;" vertex="1" parent="RMoLjJV2bHC7u4-7koIW-102">
          <mxGeometry x="257.5" y="123" width="80" height="40" as="geometry" />
        </mxCell>
        <mxCell id="RMoLjJV2bHC7u4-7koIW-129" value="" style="ellipse;whiteSpace=wrap;html=1;shadow=0;sketch=1;fillStyle=auto;gradientDirection=west;" vertex="1" parent="RMoLjJV2bHC7u4-7koIW-102">
          <mxGeometry x="343.5" y="123" width="80" height="40" as="geometry" />
        </mxCell>
        <mxCell id="RMoLjJV2bHC7u4-7koIW-130" value="" style="ellipse;whiteSpace=wrap;html=1;shadow=0;sketch=1;fillStyle=auto;gradientDirection=west;" vertex="1" parent="RMoLjJV2bHC7u4-7koIW-102">
          <mxGeometry x="431.5" y="123" width="80" height="40" as="geometry" />
        </mxCell>
        <mxCell id="RMoLjJV2bHC7u4-7koIW-131" value="" style="ellipse;whiteSpace=wrap;html=1;shadow=0;sketch=1;fillStyle=auto;gradientDirection=west;" vertex="1" parent="RMoLjJV2bHC7u4-7koIW-102">
          <mxGeometry x="517.5" y="123" width="80" height="40" as="geometry" />
        </mxCell>
        <mxCell id="RMoLjJV2bHC7u4-7koIW-132" value="" style="ellipse;whiteSpace=wrap;html=1;shadow=0;sketch=1;fillStyle=auto;gradientDirection=west;" vertex="1" parent="RMoLjJV2bHC7u4-7koIW-102">
          <mxGeometry x="2.5" y="163" width="80" height="40" as="geometry" />
        </mxCell>
        <mxCell id="RMoLjJV2bHC7u4-7koIW-133" value="" style="ellipse;whiteSpace=wrap;html=1;shadow=0;sketch=1;fillStyle=auto;gradientDirection=west;" vertex="1" parent="RMoLjJV2bHC7u4-7koIW-102">
          <mxGeometry x="87.5" y="163" width="80" height="40" as="geometry" />
        </mxCell>
        <mxCell id="RMoLjJV2bHC7u4-7koIW-134" value="" style="ellipse;whiteSpace=wrap;html=1;shadow=0;sketch=1;fillStyle=auto;gradientDirection=west;" vertex="1" parent="RMoLjJV2bHC7u4-7koIW-102">
          <mxGeometry x="172.5" y="163" width="80" height="40" as="geometry" />
        </mxCell>
        <mxCell id="RMoLjJV2bHC7u4-7koIW-135" value="" style="ellipse;whiteSpace=wrap;html=1;shadow=0;sketch=1;fillStyle=auto;gradientDirection=west;" vertex="1" parent="RMoLjJV2bHC7u4-7koIW-102">
          <mxGeometry x="257.5" y="163" width="80" height="40" as="geometry" />
        </mxCell>
        <mxCell id="RMoLjJV2bHC7u4-7koIW-136" value="" style="ellipse;whiteSpace=wrap;html=1;shadow=0;sketch=1;fillStyle=auto;gradientDirection=west;" vertex="1" parent="RMoLjJV2bHC7u4-7koIW-102">
          <mxGeometry x="343.5" y="163" width="80" height="40" as="geometry" />
        </mxCell>
        <mxCell id="RMoLjJV2bHC7u4-7koIW-137" value="" style="ellipse;whiteSpace=wrap;html=1;shadow=0;sketch=1;fillStyle=auto;gradientDirection=west;" vertex="1" parent="RMoLjJV2bHC7u4-7koIW-102">
          <mxGeometry x="431.5" y="163" width="80" height="40" as="geometry" />
        </mxCell>
        <mxCell id="RMoLjJV2bHC7u4-7koIW-138" value="" style="ellipse;whiteSpace=wrap;html=1;shadow=0;sketch=1;fillStyle=auto;gradientDirection=west;" vertex="1" parent="RMoLjJV2bHC7u4-7koIW-102">
          <mxGeometry x="517.5" y="163" width="80" height="40" as="geometry" />
        </mxCell>
        <mxCell id="RMoLjJV2bHC7u4-7koIW-139" value="" style="ellipse;whiteSpace=wrap;html=1;shadow=0;sketch=1;fillStyle=auto;gradientDirection=west;" vertex="1" parent="RMoLjJV2bHC7u4-7koIW-102">
          <mxGeometry x="3" y="206" width="80" height="40" as="geometry" />
        </mxCell>
        <mxCell id="RMoLjJV2bHC7u4-7koIW-140" value="" style="ellipse;whiteSpace=wrap;html=1;shadow=0;sketch=1;fillStyle=auto;gradientDirection=west;fillColor=#f8cecc;strokeColor=#b85450;" vertex="1" parent="RMoLjJV2bHC7u4-7koIW-102">
          <mxGeometry x="88" y="206" width="80" height="40" as="geometry" />
        </mxCell>
        <mxCell id="RMoLjJV2bHC7u4-7koIW-141" value="" style="ellipse;whiteSpace=wrap;html=1;shadow=0;sketch=1;fillStyle=auto;gradientDirection=west;fillColor=#f8cecc;strokeColor=#b85450;" vertex="1" parent="RMoLjJV2bHC7u4-7koIW-102">
          <mxGeometry x="173" y="206" width="80" height="40" as="geometry" />
        </mxCell>
        <mxCell id="RMoLjJV2bHC7u4-7koIW-142" value="" style="ellipse;whiteSpace=wrap;html=1;shadow=0;sketch=1;fillStyle=auto;gradientDirection=west;fillColor=#f8cecc;strokeColor=#b85450;" vertex="1" parent="RMoLjJV2bHC7u4-7koIW-102">
          <mxGeometry x="258" y="206" width="80" height="40" as="geometry" />
        </mxCell>
        <mxCell id="RMoLjJV2bHC7u4-7koIW-143" value="" style="ellipse;whiteSpace=wrap;html=1;shadow=0;sketch=1;fillStyle=auto;gradientDirection=west;fillColor=#f8cecc;strokeColor=#b85450;" vertex="1" parent="RMoLjJV2bHC7u4-7koIW-102">
          <mxGeometry x="344" y="206" width="80" height="40" as="geometry" />
        </mxCell>
        <mxCell id="RMoLjJV2bHC7u4-7koIW-144" value="" style="ellipse;whiteSpace=wrap;html=1;shadow=0;sketch=1;fillStyle=auto;gradientDirection=west;fillColor=#f8cecc;strokeColor=#b85450;" vertex="1" parent="RMoLjJV2bHC7u4-7koIW-102">
          <mxGeometry x="432" y="206" width="80" height="40" as="geometry" />
        </mxCell>
        <mxCell id="RMoLjJV2bHC7u4-7koIW-145" value="" style="ellipse;whiteSpace=wrap;html=1;shadow=0;sketch=1;fillStyle=auto;gradientDirection=west;fillColor=#f8cecc;strokeColor=#b85450;" vertex="1" parent="RMoLjJV2bHC7u4-7koIW-102">
          <mxGeometry x="518" y="206" width="80" height="40" as="geometry" />
        </mxCell>
        <mxCell id="RMoLjJV2bHC7u4-7koIW-146" value="" style="ellipse;whiteSpace=wrap;html=1;shadow=0;sketch=1;fillStyle=auto;gradientDirection=west;fillColor=#d5e8d4;strokeColor=#82b366;" vertex="1" parent="RMoLjJV2bHC7u4-7koIW-102">
          <mxGeometry x="87.5" y="81" width="80" height="40" as="geometry" />
        </mxCell>
        <mxCell id="RMoLjJV2bHC7u4-7koIW-147" value="" style="ellipse;whiteSpace=wrap;html=1;shadow=0;sketch=1;fillStyle=auto;gradientDirection=west;fillColor=#d5e8d4;strokeColor=#82b366;" vertex="1" parent="RMoLjJV2bHC7u4-7koIW-102">
          <mxGeometry x="5" y="41" width="80" height="40" as="geometry" />
        </mxCell>
        <mxCell id="RMoLjJV2bHC7u4-7koIW-148" value="" style="ellipse;whiteSpace=wrap;html=1;shadow=0;sketch=1;fillStyle=auto;gradientDirection=west;fillColor=#d5e8d4;strokeColor=#82b366;" vertex="1" parent="RMoLjJV2bHC7u4-7koIW-102">
          <mxGeometry x="5" y="41" width="80" height="40" as="geometry" />
        </mxCell>
        <mxCell id="RMoLjJV2bHC7u4-7koIW-149" value="" style="ellipse;whiteSpace=wrap;html=1;shadow=0;sketch=1;fillStyle=auto;gradientDirection=west;fillColor=#d5e8d4;strokeColor=#82b366;" vertex="1" parent="RMoLjJV2bHC7u4-7koIW-102">
          <mxGeometry x="87.5" y="81" width="80" height="40" as="geometry" />
        </mxCell>
        <mxCell id="RMoLjJV2bHC7u4-7koIW-150" value="" style="ellipse;whiteSpace=wrap;html=1;shadow=0;sketch=1;fillStyle=auto;gradientDirection=west;" vertex="1" parent="RMoLjJV2bHC7u4-7koIW-102">
          <mxGeometry x="87.5" y="123" width="80" height="40" as="geometry" />
        </mxCell>
        <mxCell id="RMoLjJV2bHC7u4-7koIW-151" value="" style="ellipse;whiteSpace=wrap;html=1;shadow=0;sketch=1;fillStyle=auto;gradientDirection=west;fillColor=#d5e8d4;strokeColor=#82b366;" vertex="1" parent="RMoLjJV2bHC7u4-7koIW-102">
          <mxGeometry x="172.5" y="81" width="80" height="40" as="geometry" />
        </mxCell>
        <mxCell id="RMoLjJV2bHC7u4-7koIW-152" value="" style="ellipse;whiteSpace=wrap;html=1;shadow=0;sketch=1;fillStyle=auto;gradientDirection=west;fillColor=#d5e8d4;strokeColor=#82b366;" vertex="1" parent="RMoLjJV2bHC7u4-7koIW-102">
          <mxGeometry x="257.5" y="81" width="80" height="40" as="geometry" />
        </mxCell>
        <mxCell id="RMoLjJV2bHC7u4-7koIW-153" value="" style="ellipse;whiteSpace=wrap;html=1;shadow=0;sketch=1;fillStyle=auto;gradientDirection=west;" vertex="1" parent="RMoLjJV2bHC7u4-7koIW-102">
          <mxGeometry x="343.5" y="163" width="80" height="40" as="geometry" />
        </mxCell>
        <mxCell id="RMoLjJV2bHC7u4-7koIW-154" value="" style="swimlane;shadow=1;sketch=0;fillStyle=zigzag-line;fillColor=default;gradientColor=none;gradientDirection=west;startSize=40;rounded=1;swimlaneFillColor=default;" vertex="1" parent="1">
          <mxGeometry x="120" y="640" width="600" height="250" as="geometry" />
        </mxCell>
        <mxCell id="RMoLjJV2bHC7u4-7koIW-155" value="" style="ellipse;whiteSpace=wrap;html=1;shadow=0;sketch=1;fillStyle=auto;fillColor=#d5e8d4;gradientDirection=west;strokeColor=#82b366;" vertex="1" parent="RMoLjJV2bHC7u4-7koIW-154">
          <mxGeometry x="180" y="6" width="30" height="30" as="geometry" />
        </mxCell>
        <mxCell id="RMoLjJV2bHC7u4-7koIW-156" value="" style="ellipse;whiteSpace=wrap;html=1;shadow=0;sketch=1;fillStyle=auto;fillColor=#f8cecc;gradientDirection=west;strokeColor=#b85450;" vertex="1" parent="RMoLjJV2bHC7u4-7koIW-154">
          <mxGeometry x="270" y="6" width="30" height="30" as="geometry" />
        </mxCell>
        <mxCell id="RMoLjJV2bHC7u4-7koIW-157" value="" style="ellipse;whiteSpace=wrap;html=1;shadow=0;sketch=1;fillStyle=auto;gradientDirection=west;" vertex="1" parent="RMoLjJV2bHC7u4-7koIW-154">
          <mxGeometry x="363.5" y="6" width="30" height="30" as="geometry" />
        </mxCell>
        <mxCell id="RMoLjJV2bHC7u4-7koIW-158" value="回收后" style="text;html=1;align=center;verticalAlign=middle;resizable=0;points=[];autosize=1;strokeColor=none;fillColor=none;fontFamily=Comic Sans MS;" vertex="1" parent="RMoLjJV2bHC7u4-7koIW-154">
          <mxGeometry x="20" y="11" width="50" height="20" as="geometry" />
        </mxCell>
        <mxCell id="RMoLjJV2bHC7u4-7koIW-159" value="存活对象" style="text;html=1;align=center;verticalAlign=middle;resizable=0;points=[];autosize=1;strokeColor=none;fillColor=none;fontFamily=Comic Sans MS;" vertex="1" parent="RMoLjJV2bHC7u4-7koIW-154">
          <mxGeometry x="210" y="11" width="60" height="20" as="geometry" />
        </mxCell>
        <mxCell id="RMoLjJV2bHC7u4-7koIW-160" value="垃圾对象" style="text;html=1;align=center;verticalAlign=middle;resizable=0;points=[];autosize=1;strokeColor=none;fillColor=none;fontFamily=Comic Sans MS;" vertex="1" parent="RMoLjJV2bHC7u4-7koIW-154">
          <mxGeometry x="300" y="11" width="60" height="20" as="geometry" />
        </mxCell>
        <mxCell id="RMoLjJV2bHC7u4-7koIW-161" value="未使用空间" style="text;html=1;align=center;verticalAlign=middle;resizable=0;points=[];autosize=1;strokeColor=none;fillColor=none;fontFamily=Comic Sans MS;" vertex="1" parent="RMoLjJV2bHC7u4-7koIW-154">
          <mxGeometry x="390.5" y="11" width="80" height="20" as="geometry" />
        </mxCell>
        <mxCell id="RMoLjJV2bHC7u4-7koIW-162" value="" style="rounded=1;whiteSpace=wrap;html=1;sketch=1;arcSize=5;fillColor=#f5f5f5;strokeColor=#666666;fontColor=#333333;" vertex="1" parent="RMoLjJV2bHC7u4-7koIW-154">
          <mxGeometry y="41" width="600" height="210" as="geometry" />
        </mxCell>
        <mxCell id="RMoLjJV2bHC7u4-7koIW-163" value="" style="ellipse;whiteSpace=wrap;html=1;shadow=0;sketch=1;fillStyle=auto;gradientDirection=west;fillColor=#d5e8d4;strokeColor=#82b366;" vertex="1" parent="RMoLjJV2bHC7u4-7koIW-154">
          <mxGeometry x="5" y="41" width="80" height="40" as="geometry" />
        </mxCell>
        <mxCell id="RMoLjJV2bHC7u4-7koIW-164" value="" style="ellipse;whiteSpace=wrap;html=1;shadow=0;sketch=1;fillStyle=auto;gradientDirection=west;fillColor=#d5e8d4;strokeColor=#82b366;" vertex="1" parent="RMoLjJV2bHC7u4-7koIW-154">
          <mxGeometry x="90" y="41" width="80" height="40" as="geometry" />
        </mxCell>
        <mxCell id="RMoLjJV2bHC7u4-7koIW-165" value="" style="ellipse;whiteSpace=wrap;html=1;shadow=0;sketch=1;fillStyle=auto;gradientDirection=west;fillColor=#d5e8d4;strokeColor=#82b366;" vertex="1" parent="RMoLjJV2bHC7u4-7koIW-154">
          <mxGeometry x="175" y="41" width="80" height="40" as="geometry" />
        </mxCell>
        <mxCell id="RMoLjJV2bHC7u4-7koIW-166" value="" style="ellipse;whiteSpace=wrap;html=1;shadow=0;sketch=1;fillStyle=auto;gradientDirection=west;fillColor=#d5e8d4;strokeColor=#82b366;" vertex="1" parent="RMoLjJV2bHC7u4-7koIW-154">
          <mxGeometry x="260" y="41" width="80" height="40" as="geometry" />
        </mxCell>
        <mxCell id="RMoLjJV2bHC7u4-7koIW-167" value="" style="ellipse;whiteSpace=wrap;html=1;shadow=0;sketch=1;fillStyle=auto;gradientDirection=west;fillColor=#d5e8d4;strokeColor=#82b366;" vertex="1" parent="RMoLjJV2bHC7u4-7koIW-154">
          <mxGeometry x="346" y="41" width="80" height="40" as="geometry" />
        </mxCell>
        <mxCell id="RMoLjJV2bHC7u4-7koIW-168" value="" style="ellipse;whiteSpace=wrap;html=1;shadow=0;sketch=1;fillStyle=auto;gradientDirection=west;fillColor=#d5e8d4;strokeColor=#82b366;" vertex="1" parent="RMoLjJV2bHC7u4-7koIW-154">
          <mxGeometry x="434" y="41" width="80" height="40" as="geometry" />
        </mxCell>
        <mxCell id="RMoLjJV2bHC7u4-7koIW-169" value="" style="ellipse;whiteSpace=wrap;html=1;shadow=0;sketch=1;fillStyle=auto;gradientDirection=west;fillColor=#d5e8d4;strokeColor=#82b366;" vertex="1" parent="RMoLjJV2bHC7u4-7koIW-154">
          <mxGeometry x="520" y="41" width="80" height="40" as="geometry" />
        </mxCell>
        <mxCell id="RMoLjJV2bHC7u4-7koIW-170" value="" style="ellipse;whiteSpace=wrap;html=1;shadow=0;sketch=1;fillStyle=auto;gradientDirection=west;fillColor=#d5e8d4;strokeColor=#82b366;" vertex="1" parent="RMoLjJV2bHC7u4-7koIW-154">
          <mxGeometry x="2.5" y="81" width="80" height="40" as="geometry" />
        </mxCell>
        <mxCell id="RMoLjJV2bHC7u4-7koIW-171" value="" style="ellipse;whiteSpace=wrap;html=1;shadow=0;sketch=1;fillStyle=auto;gradientDirection=west;fillColor=#d5e8d4;strokeColor=#82b366;" vertex="1" parent="RMoLjJV2bHC7u4-7koIW-154">
          <mxGeometry x="87.5" y="81" width="80" height="40" as="geometry" />
        </mxCell>
        <mxCell id="RMoLjJV2bHC7u4-7koIW-172" value="" style="ellipse;whiteSpace=wrap;html=1;shadow=0;sketch=1;fillStyle=auto;gradientDirection=west;fillColor=#d5e8d4;strokeColor=#82b366;" vertex="1" parent="RMoLjJV2bHC7u4-7koIW-154">
          <mxGeometry x="172.5" y="81" width="80" height="40" as="geometry" />
        </mxCell>
        <mxCell id="RMoLjJV2bHC7u4-7koIW-173" value="" style="ellipse;whiteSpace=wrap;html=1;shadow=0;sketch=1;fillStyle=auto;gradientDirection=west;fillColor=#d5e8d4;strokeColor=#82b366;" vertex="1" parent="RMoLjJV2bHC7u4-7koIW-154">
          <mxGeometry x="257.5" y="81" width="80" height="40" as="geometry" />
        </mxCell>
        <mxCell id="RMoLjJV2bHC7u4-7koIW-174" value="" style="ellipse;whiteSpace=wrap;html=1;shadow=0;sketch=1;fillStyle=auto;gradientDirection=west;fillColor=#d5e8d4;strokeColor=#82b366;" vertex="1" parent="RMoLjJV2bHC7u4-7koIW-154">
          <mxGeometry x="343.5" y="81" width="80" height="40" as="geometry" />
        </mxCell>
        <mxCell id="RMoLjJV2bHC7u4-7koIW-175" value="" style="ellipse;whiteSpace=wrap;html=1;shadow=0;sketch=1;fillStyle=auto;gradientDirection=west;fillColor=#d5e8d4;strokeColor=#82b366;" vertex="1" parent="RMoLjJV2bHC7u4-7koIW-154">
          <mxGeometry x="431.5" y="81" width="80" height="40" as="geometry" />
        </mxCell>
        <mxCell id="RMoLjJV2bHC7u4-7koIW-176" value="" style="ellipse;whiteSpace=wrap;html=1;shadow=0;sketch=1;fillStyle=auto;gradientDirection=west;" vertex="1" parent="RMoLjJV2bHC7u4-7koIW-154">
          <mxGeometry x="517.5" y="81" width="80" height="40" as="geometry" />
        </mxCell>
        <mxCell id="RMoLjJV2bHC7u4-7koIW-177" value="" style="ellipse;whiteSpace=wrap;html=1;shadow=0;sketch=1;fillStyle=auto;gradientDirection=west;" vertex="1" parent="RMoLjJV2bHC7u4-7koIW-154">
          <mxGeometry x="2.5" y="123" width="80" height="40" as="geometry" />
        </mxCell>
        <mxCell id="RMoLjJV2bHC7u4-7koIW-178" value="" style="ellipse;whiteSpace=wrap;html=1;shadow=0;sketch=1;fillStyle=auto;gradientDirection=west;" vertex="1" parent="RMoLjJV2bHC7u4-7koIW-154">
          <mxGeometry x="87.5" y="123" width="80" height="40" as="geometry" />
        </mxCell>
        <mxCell id="RMoLjJV2bHC7u4-7koIW-179" value="" style="ellipse;whiteSpace=wrap;html=1;shadow=0;sketch=1;fillStyle=auto;gradientDirection=west;" vertex="1" parent="RMoLjJV2bHC7u4-7koIW-154">
          <mxGeometry x="172.5" y="123" width="80" height="40" as="geometry" />
        </mxCell>
        <mxCell id="RMoLjJV2bHC7u4-7koIW-180" value="" style="ellipse;whiteSpace=wrap;html=1;shadow=0;sketch=1;fillStyle=auto;gradientDirection=west;" vertex="1" parent="RMoLjJV2bHC7u4-7koIW-154">
          <mxGeometry x="257.5" y="123" width="80" height="40" as="geometry" />
        </mxCell>
        <mxCell id="RMoLjJV2bHC7u4-7koIW-181" value="" style="ellipse;whiteSpace=wrap;html=1;shadow=0;sketch=1;fillStyle=auto;gradientDirection=west;" vertex="1" parent="RMoLjJV2bHC7u4-7koIW-154">
          <mxGeometry x="343.5" y="123" width="80" height="40" as="geometry" />
        </mxCell>
        <mxCell id="RMoLjJV2bHC7u4-7koIW-182" value="" style="ellipse;whiteSpace=wrap;html=1;shadow=0;sketch=1;fillStyle=auto;gradientDirection=west;" vertex="1" parent="RMoLjJV2bHC7u4-7koIW-154">
          <mxGeometry x="431.5" y="123" width="80" height="40" as="geometry" />
        </mxCell>
        <mxCell id="RMoLjJV2bHC7u4-7koIW-183" value="" style="ellipse;whiteSpace=wrap;html=1;shadow=0;sketch=1;fillStyle=auto;gradientDirection=west;" vertex="1" parent="RMoLjJV2bHC7u4-7koIW-154">
          <mxGeometry x="517.5" y="123" width="80" height="40" as="geometry" />
        </mxCell>
        <mxCell id="RMoLjJV2bHC7u4-7koIW-184" value="" style="ellipse;whiteSpace=wrap;html=1;shadow=0;sketch=1;fillStyle=auto;gradientDirection=west;" vertex="1" parent="RMoLjJV2bHC7u4-7koIW-154">
          <mxGeometry x="2.5" y="163" width="80" height="40" as="geometry" />
        </mxCell>
        <mxCell id="RMoLjJV2bHC7u4-7koIW-185" value="" style="ellipse;whiteSpace=wrap;html=1;shadow=0;sketch=1;fillStyle=auto;gradientDirection=west;" vertex="1" parent="RMoLjJV2bHC7u4-7koIW-154">
          <mxGeometry x="87.5" y="163" width="80" height="40" as="geometry" />
        </mxCell>
        <mxCell id="RMoLjJV2bHC7u4-7koIW-186" value="" style="ellipse;whiteSpace=wrap;html=1;shadow=0;sketch=1;fillStyle=auto;gradientDirection=west;" vertex="1" parent="RMoLjJV2bHC7u4-7koIW-154">
          <mxGeometry x="172.5" y="163" width="80" height="40" as="geometry" />
        </mxCell>
        <mxCell id="RMoLjJV2bHC7u4-7koIW-187" value="" style="ellipse;whiteSpace=wrap;html=1;shadow=0;sketch=1;fillStyle=auto;gradientDirection=west;" vertex="1" parent="RMoLjJV2bHC7u4-7koIW-154">
          <mxGeometry x="257.5" y="163" width="80" height="40" as="geometry" />
        </mxCell>
        <mxCell id="RMoLjJV2bHC7u4-7koIW-188" value="" style="ellipse;whiteSpace=wrap;html=1;shadow=0;sketch=1;fillStyle=auto;gradientDirection=west;" vertex="1" parent="RMoLjJV2bHC7u4-7koIW-154">
          <mxGeometry x="343.5" y="163" width="80" height="40" as="geometry" />
        </mxCell>
        <mxCell id="RMoLjJV2bHC7u4-7koIW-189" value="" style="ellipse;whiteSpace=wrap;html=1;shadow=0;sketch=1;fillStyle=auto;gradientDirection=west;" vertex="1" parent="RMoLjJV2bHC7u4-7koIW-154">
          <mxGeometry x="431.5" y="163" width="80" height="40" as="geometry" />
        </mxCell>
        <mxCell id="RMoLjJV2bHC7u4-7koIW-190" value="" style="ellipse;whiteSpace=wrap;html=1;shadow=0;sketch=1;fillStyle=auto;gradientDirection=west;" vertex="1" parent="RMoLjJV2bHC7u4-7koIW-154">
          <mxGeometry x="517.5" y="163" width="80" height="40" as="geometry" />
        </mxCell>
        <mxCell id="RMoLjJV2bHC7u4-7koIW-191" value="" style="ellipse;whiteSpace=wrap;html=1;shadow=0;sketch=1;fillStyle=auto;gradientDirection=west;" vertex="1" parent="RMoLjJV2bHC7u4-7koIW-154">
          <mxGeometry x="3" y="206" width="80" height="40" as="geometry" />
        </mxCell>
        <mxCell id="RMoLjJV2bHC7u4-7koIW-192" value="" style="ellipse;whiteSpace=wrap;html=1;shadow=0;sketch=1;fillStyle=auto;gradientDirection=west;" vertex="1" parent="RMoLjJV2bHC7u4-7koIW-154">
          <mxGeometry x="88" y="206" width="80" height="40" as="geometry" />
        </mxCell>
        <mxCell id="RMoLjJV2bHC7u4-7koIW-193" value="" style="ellipse;whiteSpace=wrap;html=1;shadow=0;sketch=1;fillStyle=auto;gradientDirection=west;" vertex="1" parent="RMoLjJV2bHC7u4-7koIW-154">
          <mxGeometry x="173" y="206" width="80" height="40" as="geometry" />
        </mxCell>
        <mxCell id="RMoLjJV2bHC7u4-7koIW-194" value="" style="ellipse;whiteSpace=wrap;html=1;shadow=0;sketch=1;fillStyle=auto;gradientDirection=west;" vertex="1" parent="RMoLjJV2bHC7u4-7koIW-154">
          <mxGeometry x="258" y="206" width="80" height="40" as="geometry" />
        </mxCell>
        <mxCell id="RMoLjJV2bHC7u4-7koIW-195" value="" style="ellipse;whiteSpace=wrap;html=1;shadow=0;sketch=1;fillStyle=auto;gradientDirection=west;" vertex="1" parent="RMoLjJV2bHC7u4-7koIW-154">
          <mxGeometry x="344" y="206" width="80" height="40" as="geometry" />
        </mxCell>
        <mxCell id="RMoLjJV2bHC7u4-7koIW-196" value="" style="ellipse;whiteSpace=wrap;html=1;shadow=0;sketch=1;fillStyle=auto;gradientDirection=west;" vertex="1" parent="RMoLjJV2bHC7u4-7koIW-154">
          <mxGeometry x="432" y="206" width="80" height="40" as="geometry" />
        </mxCell>
        <mxCell id="RMoLjJV2bHC7u4-7koIW-197" value="" style="ellipse;whiteSpace=wrap;html=1;shadow=0;sketch=1;fillStyle=auto;gradientDirection=west;" vertex="1" parent="RMoLjJV2bHC7u4-7koIW-154">
          <mxGeometry x="518" y="206" width="80" height="40" as="geometry" />
        </mxCell>
        <mxCell id="RMoLjJV2bHC7u4-7koIW-198" value="" style="ellipse;whiteSpace=wrap;html=1;shadow=0;sketch=1;fillStyle=auto;gradientDirection=west;fillColor=#d5e8d4;strokeColor=#82b366;" vertex="1" parent="RMoLjJV2bHC7u4-7koIW-154">
          <mxGeometry x="87.5" y="81" width="80" height="40" as="geometry" />
        </mxCell>
        <mxCell id="RMoLjJV2bHC7u4-7koIW-199" value="" style="ellipse;whiteSpace=wrap;html=1;shadow=0;sketch=1;fillStyle=auto;gradientDirection=west;fillColor=#d5e8d4;strokeColor=#82b366;" vertex="1" parent="RMoLjJV2bHC7u4-7koIW-154">
          <mxGeometry x="5" y="41" width="80" height="40" as="geometry" />
        </mxCell>
        <mxCell id="RMoLjJV2bHC7u4-7koIW-200" value="" style="ellipse;whiteSpace=wrap;html=1;shadow=0;sketch=1;fillStyle=auto;gradientDirection=west;fillColor=#d5e8d4;strokeColor=#82b366;" vertex="1" parent="RMoLjJV2bHC7u4-7koIW-154">
          <mxGeometry x="5" y="41" width="80" height="40" as="geometry" />
        </mxCell>
        <mxCell id="RMoLjJV2bHC7u4-7koIW-201" value="" style="ellipse;whiteSpace=wrap;html=1;shadow=0;sketch=1;fillStyle=auto;gradientDirection=west;fillColor=#d5e8d4;strokeColor=#82b366;" vertex="1" parent="RMoLjJV2bHC7u4-7koIW-154">
          <mxGeometry x="87.5" y="81" width="80" height="40" as="geometry" />
        </mxCell>
        <mxCell id="RMoLjJV2bHC7u4-7koIW-202" value="" style="ellipse;whiteSpace=wrap;html=1;shadow=0;sketch=1;fillStyle=auto;gradientDirection=west;" vertex="1" parent="RMoLjJV2bHC7u4-7koIW-154">
          <mxGeometry x="87.5" y="123" width="80" height="40" as="geometry" />
        </mxCell>
        <mxCell id="RMoLjJV2bHC7u4-7koIW-203" value="" style="ellipse;whiteSpace=wrap;html=1;shadow=0;sketch=1;fillStyle=auto;gradientDirection=west;fillColor=#d5e8d4;strokeColor=#82b366;" vertex="1" parent="RMoLjJV2bHC7u4-7koIW-154">
          <mxGeometry x="172.5" y="81" width="80" height="40" as="geometry" />
        </mxCell>
        <mxCell id="RMoLjJV2bHC7u4-7koIW-204" value="" style="ellipse;whiteSpace=wrap;html=1;shadow=0;sketch=1;fillStyle=auto;gradientDirection=west;fillColor=#d5e8d4;strokeColor=#82b366;" vertex="1" parent="RMoLjJV2bHC7u4-7koIW-154">
          <mxGeometry x="257.5" y="81" width="80" height="40" as="geometry" />
        </mxCell>
        <mxCell id="RMoLjJV2bHC7u4-7koIW-205" value="" style="ellipse;whiteSpace=wrap;html=1;shadow=0;sketch=1;fillStyle=auto;gradientDirection=west;" vertex="1" parent="RMoLjJV2bHC7u4-7koIW-154">
          <mxGeometry x="343.5" y="163" width="80" height="40" as="geometry" />
        </mxCell>
      </root>
    </mxGraphModel>
  </diagram>
</mxfile>
